Coordinates
version=1
nRows=7
nColumns=46
inDegrees=yes

Units are S.I. units (second, meters, Newtons, ...)
Angles are in degrees.

endheader
time	pelvis_tilt	pelvis_list	pelvis_rotation	pelvis_tx	pelvis_ty	pelvis_tz	bb_angle	bb_tx	bb_ty	bb_tz	hip_flexion_r	hip_adduction_r	hip_rotation_r	knee_angle_r	knee_angle_r_beta	ankle_angle_r	subtalar_angle_r	mtp_angle_r	crank_angle_r	hip_flexion_l	hip_adduction_l	hip_rotation_l	knee_angle_l	knee_angle_l_beta	ankle_angle_l	subtalar_angle_l	mtp_angle_l	crank_angle_l	lumbar_extension	lumbar_bending	lumbar_rotation	arm_flex_r	arm_add_r	arm_rot_r	elbow_flex_r	pro_sup_r	wrist_flex_r	wrist_dev_r	arm_flex_l	arm_add_l	arm_rot_l	elbow_flex_l	pro_sup_l	wrist_flex_l	wrist_dev_l
      7.50500000	     -9.42697726	      4.98269805	      8.65018194	      0.07737901	      1.17631630	     -0.22520063	      0.00000000	      0.50000000	      0.00000000	      0.25000000	     56.52983223	    -10.36116447	      6.01930429	     87.77592944	      1.53197897	    -25.97411873	     -7.13110552	      0.00000000	      0.00000000	     55.93402288	      6.96829322	      3.65797986	     55.82367740	      0.97430697	      7.61001292	    -10.43125501	      0.00000000	      0.00000000	    -65.70562936	      4.10234231	     -7.75619197	     89.52455722	    -13.11085579	     37.11771773	     48.85735987	     38.33026553	      0.00000000	      0.00000000	     89.70367038	    -15.67973847	     40.16576461	     52.45064718	     31.60347698	      0.00000000	      0.00000000
      7.51000000	     -9.34549824	      4.43540492	      8.42118491	      0.07767212	      1.17578652	     -0.22658460	      0.00000000	      0.50000000	      0.00000000	      0.25000000	     57.88916906	     -9.95466688	      5.98863550	     89.48880528	      1.56187430	    -27.07510588	     -6.65353003	      0.00000000	      0.00000000	     54.38994579	      6.29389710	      3.77736794	     53.54530221	      0.93454182	      7.00975136	     -9.82399493	      0.00000000	      0.00000000	    -65.57514419	      4.45378153	     -7.22398865	     89.54033049	    -13.00526554	     37.25408113	     48.79035648	     38.28890310	      0.00000000	      0.00000000	     89.68693869	    -15.75471366	     40.25556594	     52.24810298	     31.54870732	      0.00000000	      0.00000000
      7.51500000	     -9.14461516	      4.31070947	      8.00112193	      0.07819967	      1.17550946	     -0.22782688	      0.00000000	      0.50000000	      0.00000000	      0.25000000	     59.22736370	     -9.73430990	      6.38658788	     91.24957268	      1.59260548	    -28.15634263	     -6.39776396	      0.00000000	      0.00000000	     52.55388691	      5.71722773	      3.36952137	     51.16384498	      0.89297755	      6.63524500	     -9.24748778	      0.00000000	      0.00000000	    -65.51195000	      4.37050618	     -6.87575961	     89.54421971	    -13.02021184	     37.60734597	     48.48284345	     38.15530657	      0.00000000	      0.00000000	     89.68399265	    -15.62408296	     40.75489344	     51.58153893	     31.40477653	      0.00000000	      0.00000000
      7.52000000	     -8.95129958	      3.96383918	      7.55761083	      0.07873843	      1.17528147	     -0.22899045	      0.00000000	      0.50000000	      0.00000000	      0.25000000	     60.51140067	     -9.35870461	      6.50047346	     92.88172063	      1.62109184	    -28.93812308	     -6.20177171	      0.00000000	      0.00000000	     50.71082986	      4.98175763	      3.15969478	     48.81308641	      0.85194908	      6.17590822	     -8.21676034	      0.00000000	      0.00000000	    -65.41210450	      4.42964018	     -6.29188718	     89.56176776	    -13.00899722	     38.15770155	     48.06776915	     37.90459124	      0.00000000	      0.00000000	     89.68127106	    -15.44060147	     41.31607825	     50.67319673	     31.16711973	      0.00000000	      0.00000000
      7.52500000	     -8.78149477	      3.63997460	      7.04927731	      0.07929693	      1.17490823	     -0.23014526	      0.00000000	      0.50000000	      0.00000000	      0.25000000	     61.85352463	     -8.89037914	      6.73391776	     94.48280351	      1.64903601	    -29.71224725	     -6.04912323	      0.00000000	      0.00000000	     48.87873866	      4.21342601	      2.82451661	     46.53497974	      0.81218861	      5.98853853	     -7.18197401	      0.00000000	      0.00000000	    -65.34040720	      4.45532682	     -5.72633215	     89.57061406	    -12.96057577	     38.47033390	     47.87333429	     37.72809757	      0.00000000	      0.00000000	     89.67129807	    -15.36446606	     41.69032626	     50.07704001	     31.02396418	      0.00000000	      0.00000000
      7.53000000	     -8.60485077	      3.05257502	      6.36941573	      0.08002450	      1.17443892	     -0.23086425	      0.00000000	      0.50000000	      0.00000000	      0.25000000	     63.15664409	     -8.08185225	      6.75795919	     95.97149710	      1.67501861	    -30.39917644	     -5.91179748	      0.00000000	      0.00000000	     47.14694806	      2.95628831	      2.09603819	     44.46148826	      0.77599936	      6.03222960	     -3.06447951	      0.00000000	      0.00000000	    -65.24013205	      4.48270818	     -4.81929876	     89.58027582	    -12.99819236	     38.95326475	     47.64265238	     37.67574730	      0.00000000	      0.00000000	     89.66314813	    -15.21686190	     42.14245894	     49.10273533	     31.38182500	      0.00000000	      0.00000000
      7.53500000	     -8.54240996	      2.42369043	      5.78916867	      0.08045650	      1.17328797	     -0.23208579	      0.00000000	      0.50000000	      0.00000000	      0.25000000	     64.66346185	     -7.40553768	      6.72130626	     97.50869179	      1.70184772	    -30.86752144	     -5.69727859	      0.00000000	      0.00000000	     45.65922209	      2.09184831	      2.23443747	     42.67279464	      0.74478077	      5.84078427	     -3.43804962	      0.00000000	      0.00000000	    -65.03969591	      4.65607061	     -4.04475379	     89.58921291	    -12.81597736	     39.09013645	     47.57033236	     37.60206860	      0.00000000	      0.00000000	     89.63737625	    -15.31048458	     42.34036021	     48.78753820	     31.31945844	      0.00000000	      0.00000000
